<?xml version="1.0" encoding="UTF-8" standalone="no"?>
<!DOCTYPE svg PUBLIC "-//W3C//DTD SVG 1.1//EN" "http://www.w3.org/Graphics/SVG/1.1/DTD/svg11.dtd">
<svg width="100%" height="100%" viewBox="0 0 492 306" version="1.1" xmlns="http://www.w3.org/2000/svg" xmlns:xlink="http://www.w3.org/1999/xlink" xml:space="preserve" xmlns:serif="http://www.serif.com/" style="fill-rule:evenodd;clip-rule:evenodd;stroke-linejoin:round;stroke-miterlimit:2;">
    <g transform="matrix(1,0,0,1,-170.078,-1628.51)">
        <g transform="matrix(2,0,0,2,0,1339.37)">
            <g transform="matrix(1,0,0,1,163.234,255.472)">
                <path d="M0,-58.086L0,8.159C0,9.464 0.653,10.116 1.958,10.116L10.442,10.116C11.748,10.116 12.4,9.464 12.4,8.159L12.4,-65.755C12.4,-67.386 11.692,-68.202 10.279,-68.202L2.027,-68.123C0.722,-68.123 0.069,-67.47 0.069,-66.165" style="fill-rule:nonzero;"/>
            </g>
            <g transform="matrix(1,0,0,1,168.618,168.506)">
                <path d="M0,-19.906C-2.72,-19.906 -5.058,-18.953 -7.016,-17.051C-8.974,-15.146 -9.953,-12.78 -9.953,-9.953C-9.953,-7.123 -8.974,-4.757 -7.016,-2.855C-5.058,-0.951 -2.72,0 0,0C2.718,0 5.058,-0.979 7.016,-2.937C8.974,-4.895 9.953,-7.233 9.953,-9.953C9.953,-12.671 8.974,-15.011 7.016,-16.969C5.058,-18.927 2.718,-19.906 0,-19.906" style="fill-rule:nonzero;"/>
            </g>
            <g transform="matrix(1,0,0,1,285.087,189.825)">
                <path d="M0,103.223L0,70.926C5.699,74.513 12.136,76.309 19.315,76.309C28.074,76.309 34.672,72.405 39.104,64.593C43.537,56.784 45.754,46.758 45.754,34.513C45.754,23.854 43.641,14.751 39.421,7.203C35.198,-0.342 29.076,-4.116 21.056,-4.116C19.473,-4.116 17.915,-4.01 16.386,-3.8C14.855,-3.587 13.378,-3.218 11.953,-2.692C10.528,-2.162 9.286,-1.714 8.233,-1.346C7.176,-0.975 6.016,-0.396 4.75,0.396C3.483,1.187 2.585,1.769 2.058,2.137C1.529,2.508 0.712,3.087 -0.396,3.879C-1.504,4.67 -2.113,5.12 -2.216,5.224C-2.64,3.537 -3.458,1.558 -4.67,-0.713C-5.885,-2.981 -6.966,-4.116 -7.916,-4.116C-8.129,-4.116 -8.549,-3.958 -9.182,-3.641L-15.357,0.158C-16.307,0.688 -16.782,1.108 -16.782,1.425C-16.782,1.741 -16.361,2.639 -15.515,4.116C-14.672,5.595 -14.145,6.649 -13.932,7.282C-12.665,11.082 -12.032,16.361 -12.032,23.114L-12.032,105.281C-12.032,106.652 -11.664,107.339 -10.924,107.339C-9.974,107.233 -9.341,107.127 -9.024,107.023M32.772,34.83C32.772,38.419 32.693,41.479 32.534,44.012C32.376,46.545 32.005,49.291 31.426,52.245C30.845,55.201 30.053,57.576 29.051,59.369C28.047,61.165 26.597,62.669 24.698,63.881C22.798,65.096 20.527,65.702 17.89,65.702C12.507,65.702 6.543,63.96 0,60.477L0,14.248C6.437,9.078 12.717,6.491 18.84,6.491C21.9,6.491 24.406,7.282 26.36,8.866C28.312,10.449 29.736,12.772 30.634,15.832C31.53,18.894 32.111,21.823 32.376,24.618C32.638,27.416 32.772,30.82 32.772,34.83" style="fill-rule:nonzero;"/>
            </g>
            <g transform="matrix(1,0,0,1,209.845,144.568)">
                <path d="M0,104.065C-0.326,102.107 1.56,97.518 1.56,89.25L1.56,2.121C1.56,0.709 1.178,0 0.418,0C-0.561,0.109 -1.213,0.219 -1.54,0.326L-9.698,2.284C-10.46,2.503 -10.84,3.156 -10.84,4.242L-10.84,88.924" style="fill-rule:nonzero;"/>
            </g>
            <g transform="matrix(1,0,0,1,199.018,255.861)">
                <path d="M0,-58.087L0,8.158C0,9.463 0.653,10.116 1.958,10.116L10.442,10.116C11.748,10.116 12.4,9.463 12.4,8.158L12.4,-65.756C12.4,-67.387 11.692,-68.203 10.279,-68.203" style="fill-rule:nonzero;"/>
            </g>
            <g transform="matrix(1,0,0,1,238.194,255.921)">
                <path d="M0,-58.087L0,8.158C0,9.463 0.653,10.116 1.958,10.116L10.442,10.116C11.748,10.116 12.4,9.463 12.4,8.158L12.4,-65.756C12.4,-67.387 11.692,-68.203 10.279,-68.203L2.027,-68.123C0.722,-68.123 0.069,-67.471 0.069,-66.166" style="fill-rule:nonzero;"/>
            </g>
            <g transform="matrix(1,0,0,1,243.579,168.954)">
                <path d="M0,-19.906C-2.72,-19.906 -5.058,-18.953 -7.016,-17.051C-8.974,-15.146 -9.953,-12.78 -9.953,-9.953C-9.953,-7.123 -8.974,-4.757 -7.016,-2.855C-5.058,-0.951 -2.72,0 0,0C2.718,0 5.058,-0.979 7.016,-2.937C8.974,-4.895 9.953,-7.233 9.953,-9.953C9.953,-12.671 8.974,-15.011 7.016,-16.969C5.058,-18.927 2.718,-19.906 0,-19.906" style="fill-rule:nonzero;"/>
            </g>
            <g transform="matrix(1,0,0,1,140.515,198.848)">
                <path d="M0,50.622C-0.116,50.622 -1.186,51.202 -3.207,52.356C-5.231,53.512 -7.918,54.696 -11.268,55.91C-14.622,57.123 -17.973,57.73 -21.323,57.73C-34.615,57.73 -41.26,46.925 -41.26,25.311C-41.26,14.679 -39.613,6.618 -36.319,1.127C-33.025,-4.361 -27.334,-7.107 -19.243,-7.107C-16.239,-7.107 -13.262,-6.384 -10.315,-4.94C-7.368,-3.494 -5.027,-2.02 -3.294,-0.52L-0.867,1.734C-0.637,1.734 -0.29,1.387 0.173,0.694L4.161,-6.587C4.161,-6.701 4.247,-6.904 4.421,-7.194C4.594,-7.481 4.681,-7.741 4.681,-7.974C4.681,-9.591 1.847,-11.788 -3.814,-14.562C-9.478,-17.336 -14.969,-18.723 -20.283,-18.723C-31.032,-18.723 -39.586,-14.562 -45.941,-6.241C-52.298,2.081 -55.476,13.466 -55.476,27.912C-55.476,40.627 -52.615,50.709 -46.894,58.163C-41.173,65.618 -33.172,69.345 -22.884,69.345C-18.956,69.345 -14.766,68.709 -10.315,67.438C-5.867,66.168 -2.284,64.838 0.433,63.451C3.148,62.064 4.507,61.024 4.507,60.33C4.507,60.1 4.421,59.84 4.247,59.55C4.074,59.263 3.987,59.06 3.987,58.943L1.04,51.662C0.577,50.969 0.23,50.622 0,50.622" style="fill-rule:nonzero;"/>
            </g>
            <g transform="matrix(1,0,0,1,97.2298,292.623)">
                <path d="M0,-16.38L0,-3.367C0,-3.209 0.079,-3.13 0.236,-3.13L3.111,-3.13C3.99,-3.13 4.695,-3.18 5.227,-3.278C5.759,-3.376 6.202,-3.576 6.556,-3.878C7.422,-4.639 7.855,-5.631 7.855,-6.851C7.855,-7.415 7.78,-7.908 7.629,-8.328C7.478,-8.748 7.268,-9.079 6.999,-9.322C6.73,-9.565 6.477,-9.748 6.241,-9.873C6.005,-9.998 5.736,-10.106 5.434,-10.198C6.733,-10.867 7.383,-11.937 7.383,-13.407C7.383,-13.985 7.291,-14.483 7.107,-14.903C6.923,-15.323 6.704,-15.642 6.448,-15.858C6.192,-16.075 5.867,-16.242 5.473,-16.36C5.079,-16.478 4.741,-16.55 4.459,-16.577C4.177,-16.603 3.846,-16.616 3.465,-16.616L0.236,-16.616C0.079,-16.616 0,-16.538 0,-16.38M1.614,-15.238L3.426,-15.238C4.121,-15.238 4.659,-15.103 5.04,-14.835C5.421,-14.565 5.611,-14.03 5.611,-13.23C5.611,-12.679 5.532,-12.223 5.375,-11.862C5.217,-11.501 5.001,-11.238 4.725,-11.074C4.449,-10.91 4.18,-10.802 3.918,-10.749C3.655,-10.697 3.353,-10.671 3.012,-10.671L1.614,-10.671L1.614,-15.238ZM1.614,-9.352L3.426,-9.352C5.198,-9.352 6.083,-8.538 6.083,-6.91C6.083,-5.309 5.23,-4.508 3.524,-4.508L1.614,-4.508L1.614,-9.352ZM14.785,-4.528C14.286,-4.292 13.893,-4.174 13.604,-4.174C12.528,-4.174 11.99,-4.705 11.99,-5.768L11.99,-12.6C11.99,-12.77 11.944,-12.856 11.852,-12.856C11.734,-12.843 11.655,-12.829 11.616,-12.817L10.631,-12.58C10.539,-12.554 10.493,-12.475 10.493,-12.344L10.493,-5.808C10.493,-5.375 10.52,-5.014 10.572,-4.725C10.624,-4.436 10.74,-4.134 10.917,-3.819C11.094,-3.504 11.389,-3.265 11.803,-3.101C12.216,-2.937 12.738,-2.855 13.368,-2.855C14.247,-2.855 15.159,-3.242 16.104,-4.016C16.131,-3.95 16.173,-3.855 16.232,-3.731C16.291,-3.606 16.341,-3.498 16.38,-3.406C16.419,-3.314 16.462,-3.222 16.508,-3.13C16.554,-3.039 16.606,-2.97 16.665,-2.924C16.725,-2.878 16.78,-2.855 16.833,-2.855C16.859,-2.855 16.912,-2.874 16.99,-2.914L17.758,-3.386C17.876,-3.452 17.935,-3.504 17.935,-3.544L17.561,-4.292C17.417,-4.594 17.345,-5.027 17.345,-5.591L17.345,-12.6C17.345,-12.77 17.299,-12.856 17.207,-12.856C17.089,-12.843 17.01,-12.829 16.971,-12.817L15.986,-12.58C15.894,-12.554 15.848,-12.475 15.848,-12.344L15.848,-5.178C15.638,-4.981 15.284,-4.764 14.785,-4.528M11.95,-16.557C11.661,-16.557 11.415,-16.455 11.212,-16.252C11.008,-16.048 10.907,-15.802 10.907,-15.514C10.907,-15.225 11.008,-14.979 11.212,-14.775C11.415,-14.572 11.661,-14.47 11.95,-14.47C12.239,-14.47 12.485,-14.572 12.689,-14.775C12.892,-14.979 12.994,-15.225 12.994,-15.514C12.994,-15.802 12.892,-16.048 12.689,-16.252C12.485,-16.455 12.239,-16.557 11.95,-16.557M15.829,-14.47C16.117,-14.47 16.363,-14.572 16.567,-14.775C16.77,-14.979 16.872,-15.225 16.872,-15.514C16.872,-15.802 16.77,-16.048 16.567,-16.252C16.363,-16.455 16.117,-16.557 15.829,-16.557C15.54,-16.557 15.294,-16.455 15.09,-16.252C14.887,-16.048 14.785,-15.802 14.785,-15.514C14.785,-15.225 14.887,-14.979 15.09,-14.775C15.294,-14.572 15.54,-14.47 15.829,-14.47M22.444,-10.297C22.641,-10.533 22.801,-10.713 22.926,-10.838C23.051,-10.963 23.208,-11.087 23.399,-11.212C23.589,-11.337 23.763,-11.399 23.92,-11.399C24.065,-11.399 24.206,-11.37 24.344,-11.31C24.481,-11.251 24.557,-11.222 24.57,-11.222C24.596,-11.222 24.636,-11.268 24.688,-11.36L25.121,-12.364C25.121,-12.377 25.131,-12.403 25.151,-12.442C25.17,-12.482 25.18,-12.508 25.18,-12.521C25.18,-12.613 25.078,-12.692 24.875,-12.758C24.672,-12.823 24.452,-12.856 24.216,-12.856C23.953,-12.856 23.684,-12.784 23.408,-12.639C23.133,-12.495 22.936,-12.37 22.818,-12.265C22.7,-12.16 22.509,-11.957 22.247,-11.655L21.853,-11.202C21.787,-11.53 21.682,-11.888 21.538,-12.275C21.394,-12.662 21.243,-12.856 21.085,-12.856C21.046,-12.856 20.98,-12.823 20.888,-12.758L20.16,-12.305C20.081,-12.265 20.035,-12.199 20.022,-12.108C20.022,-12.029 20.094,-11.865 20.239,-11.616C20.462,-11.222 20.573,-10.723 20.573,-10.119L20.573,-3.367C20.573,-3.209 20.652,-3.13 20.81,-3.13L21.833,-3.13C21.991,-3.13 22.07,-3.209 22.07,-3.367L22.07,-9.863C22.122,-9.916 22.247,-10.06 22.444,-10.297M33.488,-11.419C33.54,-11.55 33.596,-11.668 33.656,-11.773C33.715,-11.878 33.76,-11.957 33.793,-12.009C33.826,-12.062 33.843,-12.108 33.843,-12.147C33.843,-12.187 33.816,-12.226 33.764,-12.265L32.878,-12.817C32.825,-12.843 32.766,-12.856 32.701,-12.856C32.517,-12.856 32.327,-12.574 32.13,-12.009C31.395,-12.574 30.62,-12.856 29.807,-12.856C28.586,-12.856 27.664,-12.4 27.041,-11.488C26.417,-10.575 26.105,-9.325 26.105,-7.737C26.105,-6.372 26.381,-5.306 26.932,-4.538C27.483,-3.77 28.218,-3.386 29.137,-3.386C30.043,-3.386 30.935,-3.747 31.815,-4.469C31.815,-4.456 31.825,-4.213 31.844,-3.741C31.864,-3.268 31.874,-2.835 31.874,-2.441C31.874,-1.785 31.739,-1.267 31.47,-0.886C31.201,-0.505 30.653,-0.315 29.826,-0.315C29.433,-0.315 29.022,-0.377 28.596,-0.502C28.169,-0.627 27.825,-0.755 27.562,-0.886C27.3,-1.017 27.155,-1.083 27.129,-1.083C27.063,-1.083 27.017,-1.043 26.991,-0.965L26.676,-0.295C26.624,-0.19 26.598,-0.105 26.598,-0.039C26.598,0.158 26.972,0.381 27.72,0.63C28.468,0.879 29.196,1.004 29.905,1.004C31.139,1.004 32.025,0.679 32.563,0.03C33.101,-0.62 33.37,-1.45 33.37,-2.461C33.37,-2.815 33.347,-3.557 33.301,-4.686C33.255,-5.814 33.232,-6.562 33.232,-6.93L33.232,-9.962C33.232,-10.461 33.317,-10.946 33.488,-11.419M31.519,-5.542C31.388,-5.444 31.296,-5.378 31.244,-5.345C31.191,-5.312 31.099,-5.253 30.968,-5.168C30.837,-5.082 30.722,-5.02 30.624,-4.981C30.525,-4.942 30.407,-4.895 30.269,-4.843C30.131,-4.791 29.994,-4.755 29.856,-4.735C29.718,-4.715 29.577,-4.705 29.433,-4.705C28.803,-4.705 28.36,-4.994 28.104,-5.572C27.848,-6.149 27.72,-6.996 27.72,-8.111C27.72,-9.187 27.903,-10.027 28.271,-10.631C28.638,-11.235 29.19,-11.537 29.925,-11.537C30.384,-11.537 30.988,-11.36 31.736,-11.005L31.736,-5.69C31.723,-5.69 31.65,-5.64 31.519,-5.542M37.485,-9.637C37.55,-9.932 37.655,-10.237 37.8,-10.552C37.944,-10.867 38.174,-11.126 38.489,-11.33C38.804,-11.533 39.171,-11.635 39.591,-11.635C40.116,-11.635 40.543,-11.458 40.871,-11.104C41.199,-10.749 41.409,-10.375 41.501,-9.982C41.593,-9.588 41.639,-9.181 41.639,-8.761L37.386,-8.761C37.386,-9.049 37.419,-9.342 37.485,-9.637M42.525,-4.981C42.512,-4.981 42.39,-4.915 42.161,-4.784C41.931,-4.653 41.626,-4.518 41.245,-4.38C40.864,-4.243 40.484,-4.174 40.103,-4.174C39.578,-4.174 39.125,-4.288 38.745,-4.518C38.364,-4.748 38.082,-5.046 37.898,-5.414C37.714,-5.781 37.583,-6.139 37.504,-6.487C37.426,-6.835 37.386,-7.186 37.386,-7.54L43.037,-7.54C43.181,-7.54 43.253,-7.685 43.253,-7.973C43.253,-11.228 42.059,-12.856 39.67,-12.856C38.476,-12.856 37.527,-12.39 36.825,-11.458C36.123,-10.526 35.772,-9.325 35.772,-7.855C35.772,-6.346 36.139,-5.138 36.874,-4.233C37.609,-3.327 38.627,-2.868 39.926,-2.855C40.372,-2.855 40.848,-2.927 41.353,-3.071C41.858,-3.216 42.265,-3.367 42.574,-3.524C42.882,-3.682 43.037,-3.8 43.037,-3.878C43.037,-3.905 43.027,-3.934 43.007,-3.967C42.987,-4 42.978,-4.023 42.978,-4.036L42.643,-4.863C42.59,-4.942 42.551,-4.981 42.525,-4.981M47.604,-10.297C47.801,-10.533 47.962,-10.713 48.086,-10.838C48.211,-10.963 48.368,-11.087 48.559,-11.212C48.749,-11.337 48.923,-11.399 49.081,-11.399C49.225,-11.399 49.366,-11.37 49.504,-11.31C49.642,-11.251 49.717,-11.222 49.73,-11.222C49.756,-11.222 49.796,-11.268 49.848,-11.36L50.282,-12.364C50.282,-12.377 50.291,-12.403 50.311,-12.442C50.331,-12.482 50.341,-12.508 50.341,-12.521C50.341,-12.613 50.239,-12.692 50.035,-12.758C49.832,-12.823 49.612,-12.856 49.376,-12.856C49.113,-12.856 48.844,-12.784 48.569,-12.639C48.293,-12.495 48.096,-12.37 47.978,-12.265C47.86,-12.16 47.67,-11.957 47.407,-11.655L47.013,-11.202C46.948,-11.53 46.843,-11.888 46.698,-12.275C46.554,-12.662 46.403,-12.856 46.246,-12.856C46.206,-12.856 46.14,-12.823 46.049,-12.758L45.32,-12.305C45.242,-12.265 45.195,-12.199 45.182,-12.108C45.182,-12.029 45.254,-11.865 45.399,-11.616C45.622,-11.222 45.734,-10.723 45.734,-10.119L45.734,-3.367C45.734,-3.209 45.812,-3.13 45.97,-3.13L46.994,-3.13C47.151,-3.13 47.23,-3.209 47.23,-3.367L47.23,-9.863C47.282,-9.916 47.407,-10.06 47.604,-10.297M53.805,-10.297C54.002,-10.533 54.163,-10.713 54.288,-10.838C54.412,-10.963 54.57,-11.087 54.76,-11.212C54.95,-11.337 55.124,-11.399 55.282,-11.399C55.426,-11.399 55.567,-11.37 55.705,-11.31C55.843,-11.251 55.918,-11.222 55.932,-11.222C55.958,-11.222 55.997,-11.268 56.05,-11.36L56.483,-12.364C56.483,-12.377 56.493,-12.403 56.512,-12.442C56.532,-12.482 56.542,-12.508 56.542,-12.521C56.542,-12.613 56.44,-12.692 56.237,-12.758C56.033,-12.823 55.813,-12.856 55.577,-12.856C55.315,-12.856 55.046,-12.784 54.77,-12.639C54.494,-12.495 54.298,-12.37 54.179,-12.265C54.061,-12.16 53.871,-11.957 53.608,-11.655L53.215,-11.202C53.149,-11.53 53.044,-11.888 52.9,-12.275C52.755,-12.662 52.604,-12.856 52.447,-12.856C52.408,-12.856 52.342,-12.823 52.25,-12.758L51.522,-12.305C51.443,-12.265 51.397,-12.199 51.384,-12.108C51.384,-12.029 51.456,-11.865 51.6,-11.616C51.823,-11.222 51.935,-10.723 51.935,-10.119L51.935,-3.367C51.935,-3.209 52.014,-3.13 52.171,-3.13L53.195,-3.13C53.353,-3.13 53.431,-3.209 53.431,-3.367L53.431,-9.863C53.484,-9.916 53.608,-10.06 53.805,-10.297M59.003,-9.637C59.068,-9.932 59.173,-10.237 59.318,-10.552C59.462,-10.867 59.692,-11.126 60.007,-11.33C60.322,-11.533 60.689,-11.635 61.109,-11.635C61.634,-11.635 62.061,-11.458 62.389,-11.104C62.717,-10.749 62.927,-10.375 63.019,-9.982C63.111,-9.588 63.157,-9.181 63.157,-8.761L58.904,-8.761C58.904,-9.049 58.937,-9.342 59.003,-9.637M64.043,-4.981C64.029,-4.981 63.908,-4.915 63.678,-4.784C63.449,-4.653 63.143,-4.518 62.763,-4.38C62.382,-4.243 62.002,-4.174 61.621,-4.174C61.096,-4.174 60.643,-4.288 60.263,-4.518C59.882,-4.748 59.6,-5.046 59.416,-5.414C59.232,-5.781 59.101,-6.139 59.022,-6.487C58.944,-6.835 58.904,-7.186 58.904,-7.54L64.554,-7.54C64.699,-7.54 64.771,-7.685 64.771,-7.973C64.771,-11.228 63.577,-12.856 61.188,-12.856C59.993,-12.856 59.045,-12.39 58.343,-11.458C57.641,-10.526 57.29,-9.325 57.29,-7.855C57.29,-6.346 57.657,-5.138 58.392,-4.233C59.127,-3.327 60.144,-2.868 61.444,-2.855C61.89,-2.855 62.366,-2.927 62.871,-3.071C63.376,-3.216 63.783,-3.367 64.092,-3.524C64.4,-3.682 64.554,-3.8 64.554,-3.878C64.554,-3.905 64.545,-3.934 64.525,-3.967C64.505,-4 64.495,-4.023 64.495,-4.036L64.161,-4.863C64.108,-4.942 64.069,-4.981 64.043,-4.981M72.961,-4.981C72.948,-4.981 72.826,-4.915 72.597,-4.784C72.367,-4.653 72.062,-4.518 71.681,-4.38C71.3,-4.243 70.92,-4.174 70.539,-4.174C69.03,-4.174 68.275,-5.401 68.275,-7.855C68.275,-9.063 68.462,-9.978 68.836,-10.602C69.211,-11.225 69.857,-11.537 70.776,-11.537C71.117,-11.537 71.455,-11.455 71.79,-11.291C72.124,-11.126 72.39,-10.959 72.587,-10.789L72.863,-10.533C72.889,-10.533 72.928,-10.572 72.981,-10.651L73.433,-11.478C73.433,-11.491 73.443,-11.514 73.463,-11.547C73.483,-11.579 73.493,-11.609 73.493,-11.635C73.493,-11.819 73.171,-12.068 72.528,-12.383C71.885,-12.698 71.261,-12.856 70.658,-12.856C69.437,-12.856 68.465,-12.383 67.744,-11.438C67.022,-10.493 66.661,-9.2 66.661,-7.56C66.661,-6.116 66.986,-4.971 67.636,-4.125C68.285,-3.278 69.194,-2.855 70.362,-2.855C70.808,-2.855 71.284,-2.927 71.79,-3.071C72.295,-3.216 72.702,-3.367 73.01,-3.524C73.318,-3.682 73.473,-3.8 73.473,-3.878C73.473,-3.905 73.463,-3.934 73.443,-3.967C73.424,-4 73.414,-4.023 73.414,-4.036L73.079,-4.863C73.027,-4.942 72.987,-4.981 72.961,-4.981M75.855,-3.13L76.879,-3.13C77.036,-3.13 77.115,-3.209 77.115,-3.367L77.115,-10.336C78.021,-11.136 78.906,-11.537 79.773,-11.537C80.626,-11.537 81.052,-11.005 81.052,-9.942L81.052,-3.367C81.052,-3.209 81.131,-3.13 81.289,-3.13L82.312,-3.13C82.47,-3.13 82.549,-3.209 82.549,-3.367L82.549,-9.903C82.549,-10.336 82.526,-10.697 82.48,-10.986C82.434,-11.274 82.342,-11.576 82.204,-11.891C82.066,-12.206 81.83,-12.446 81.495,-12.61C81.161,-12.774 80.731,-12.856 80.206,-12.856C79.248,-12.856 78.217,-12.41 77.115,-11.517L77.115,-17.128C77.115,-17.299 77.069,-17.384 76.977,-17.384C76.859,-17.371 76.78,-17.358 76.741,-17.345L75.757,-17.108C75.665,-17.082 75.619,-17.003 75.619,-16.872L75.619,-3.367C75.619,-3.209 75.697,-3.13 75.855,-3.13M90.699,-4.705C90.66,-4.705 90.545,-4.659 90.355,-4.567C90.164,-4.476 89.928,-4.387 89.646,-4.302C89.364,-4.216 89.085,-4.174 88.809,-4.174C88.586,-4.174 88.396,-4.206 88.238,-4.272C88.081,-4.338 87.963,-4.413 87.884,-4.499C87.805,-4.584 87.746,-4.712 87.707,-4.883C87.667,-5.053 87.644,-5.191 87.638,-5.296C87.631,-5.401 87.628,-5.558 87.628,-5.768L87.628,-11.36L90.227,-11.36C90.345,-11.36 90.43,-11.419 90.483,-11.537L90.739,-12.305C90.739,-12.331 90.742,-12.357 90.748,-12.383C90.755,-12.41 90.758,-12.429 90.758,-12.442C90.758,-12.534 90.686,-12.58 90.542,-12.58L87.628,-12.58L87.628,-15.612C87.628,-15.756 87.595,-15.829 87.53,-15.829C87.516,-15.829 87.497,-15.825 87.47,-15.819C87.444,-15.812 87.418,-15.809 87.392,-15.809L86.348,-15.514C86.204,-15.474 86.132,-15.396 86.132,-15.277L86.132,-12.58L84.655,-12.58C84.563,-12.58 84.517,-12.502 84.517,-12.344L84.517,-11.596C84.517,-11.438 84.563,-11.36 84.655,-11.36L86.132,-11.36L86.132,-5.768C86.132,-4.692 86.322,-3.95 86.703,-3.544C87.07,-3.084 87.687,-2.855 88.553,-2.855C89.065,-2.855 89.616,-2.957 90.207,-3.16C90.798,-3.363 91.093,-3.531 91.093,-3.662C91.093,-3.688 91.08,-3.754 91.054,-3.859L90.837,-4.587C90.837,-4.666 90.791,-4.705 90.699,-4.705M93.652,-9.637C93.718,-9.932 93.823,-10.237 93.967,-10.552C94.111,-10.867 94.341,-11.126 94.656,-11.33C94.971,-11.533 95.339,-11.635 95.759,-11.635C96.284,-11.635 96.71,-11.458 97.038,-11.104C97.366,-10.749 97.576,-10.375 97.668,-9.982C97.76,-9.588 97.806,-9.181 97.806,-8.761L93.554,-8.761C93.554,-9.049 93.586,-9.342 93.652,-9.637M98.692,-4.981C98.679,-4.981 98.557,-4.915 98.328,-4.784C98.098,-4.653 97.793,-4.518 97.412,-4.38C97.032,-4.243 96.651,-4.174 96.271,-4.174C95.745,-4.174 95.293,-4.288 94.912,-4.518C94.531,-4.748 94.249,-5.046 94.066,-5.414C93.882,-5.781 93.751,-6.139 93.672,-6.487C93.593,-6.835 93.554,-7.186 93.554,-7.54L99.204,-7.54C99.348,-7.54 99.421,-7.685 99.421,-7.973C99.421,-11.228 98.226,-12.856 95.837,-12.856C94.643,-12.856 93.695,-12.39 92.993,-11.458C92.29,-10.526 91.939,-9.325 91.939,-7.855C91.939,-6.346 92.307,-5.138 93.042,-4.233C93.777,-3.327 94.794,-2.868 96.093,-2.855C96.539,-2.855 97.015,-2.927 97.521,-3.071C98.026,-3.216 98.433,-3.367 98.741,-3.524C99.05,-3.682 99.204,-3.8 99.204,-3.878C99.204,-3.905 99.194,-3.934 99.174,-3.967C99.155,-4 99.145,-4.023 99.145,-4.036L98.81,-4.863C98.758,-4.942 98.718,-4.981 98.692,-4.981M113.773,-8.859C113.773,-9.069 113.694,-9.174 113.536,-9.174L112.572,-9.174C112.414,-9.174 112.336,-9.096 112.336,-8.938L112.336,-8.682C112.336,-7.763 112.139,-7.002 111.745,-6.398L108.496,-10.159C108.523,-10.172 108.568,-10.205 108.634,-10.257C108.975,-10.48 109.231,-10.661 109.402,-10.799C109.573,-10.936 109.828,-11.176 110.17,-11.517C110.511,-11.858 110.764,-12.236 110.928,-12.649C111.092,-13.063 111.174,-13.512 111.174,-13.998C111.174,-14.943 110.885,-15.661 110.308,-16.154C109.73,-16.646 109.028,-16.892 108.201,-16.892C107.296,-16.892 106.488,-16.616 105.78,-16.065C105.071,-15.514 104.716,-14.733 104.716,-13.722C104.716,-12.751 105.281,-11.583 106.41,-10.218C106.396,-10.205 106.291,-10.136 106.095,-10.011C105.898,-9.886 105.743,-9.781 105.632,-9.696C105.52,-9.611 105.359,-9.48 105.15,-9.302C104.939,-9.125 104.769,-8.948 104.638,-8.771C104.506,-8.594 104.372,-8.383 104.234,-8.141C104.096,-7.898 103.991,-7.629 103.919,-7.334C103.847,-7.038 103.811,-6.726 103.811,-6.398C103.811,-5.361 104.175,-4.512 104.904,-3.849C105.632,-3.186 106.619,-2.855 107.866,-2.855C108.47,-2.855 109.051,-2.953 109.609,-3.15C110.167,-3.347 110.547,-3.517 110.751,-3.662C110.954,-3.806 111.213,-4.009 111.528,-4.272L112.611,-2.992C112.703,-2.901 112.788,-2.855 112.867,-2.855C112.959,-2.855 113.044,-2.881 113.123,-2.933L113.911,-3.583C113.976,-3.622 114.009,-3.668 114.009,-3.721C114.009,-3.76 113.976,-3.813 113.911,-3.878L112.631,-5.375C113.392,-6.438 113.773,-7.599 113.773,-8.859M106.754,-15.189C107.115,-15.51 107.532,-15.671 108.004,-15.671C108.477,-15.671 108.874,-15.514 109.195,-15.199C109.517,-14.884 109.678,-14.444 109.678,-13.88C109.678,-13.407 109.546,-12.954 109.284,-12.521C108.995,-12.062 108.47,-11.557 107.709,-11.005C106.711,-12.173 106.213,-13.132 106.213,-13.88C106.213,-14.431 106.393,-14.867 106.754,-15.189M108.024,-4.174C107.236,-4.174 106.606,-4.384 106.134,-4.804C105.661,-5.224 105.425,-5.795 105.425,-6.517C105.425,-6.7 105.438,-6.877 105.465,-7.048C105.491,-7.219 105.537,-7.376 105.602,-7.521C105.668,-7.665 105.73,-7.799 105.789,-7.924C105.848,-8.049 105.927,-8.173 106.026,-8.298C106.124,-8.423 106.206,-8.525 106.272,-8.603C106.337,-8.682 106.429,-8.771 106.547,-8.869C106.666,-8.968 106.747,-9.037 106.794,-9.076C106.839,-9.115 106.915,-9.181 107.02,-9.273L107.197,-9.391L110.721,-5.237C109.894,-4.528 108.995,-4.174 108.024,-4.174M120.683,-15.238L122.199,-15.238C122.566,-15.238 122.865,-15.221 123.095,-15.189C123.324,-15.156 123.583,-15.074 123.872,-14.943C124.161,-14.811 124.377,-14.582 124.522,-14.254C124.666,-13.926 124.738,-13.506 124.738,-12.994C124.738,-11.891 124.492,-11.15 124,-10.769C123.508,-10.388 122.829,-10.198 121.963,-10.198L120.683,-10.198L120.683,-15.238ZM122.1,-8.82C122.665,-8.82 123.183,-8.886 123.656,-9.017C124.128,-9.148 124.574,-9.364 124.994,-9.667C125.414,-9.968 125.746,-10.405 125.989,-10.976C126.231,-11.547 126.353,-12.232 126.353,-13.033C126.353,-13.702 126.258,-14.273 126.067,-14.746C125.877,-15.218 125.654,-15.573 125.398,-15.809C125.142,-16.045 124.807,-16.229 124.394,-16.36C123.981,-16.491 123.639,-16.567 123.37,-16.587C123.101,-16.606 122.763,-16.616 122.356,-16.616L119.305,-16.616C119.147,-16.616 119.068,-16.538 119.068,-16.38L119.068,-3.367C119.068,-3.209 119.147,-3.13 119.305,-3.13L120.447,-3.13C120.604,-3.13 120.683,-3.209 120.683,-3.367L120.683,-8.82L122.1,-8.82ZM132.023,-12.856C130.671,-12.856 129.667,-12.383 129.011,-11.438C128.354,-10.493 128.026,-9.286 128.026,-7.816C128.026,-6.32 128.341,-5.119 128.971,-4.213C129.601,-3.307 130.553,-2.855 131.826,-2.855C133.191,-2.855 134.205,-3.327 134.868,-4.272C135.53,-5.217 135.862,-6.431 135.862,-7.914C135.862,-9.397 135.544,-10.592 134.907,-11.497C134.27,-12.403 133.309,-12.856 132.023,-12.856M129.641,-7.993C129.641,-10.421 130.408,-11.635 131.944,-11.635C132.771,-11.635 133.362,-11.291 133.716,-10.602C134.07,-9.913 134.248,-9.023 134.248,-7.934C134.248,-5.361 133.486,-4.075 131.964,-4.075C130.415,-4.075 129.641,-5.381 129.641,-7.993M141.709,-4.331C141.696,-4.331 141.571,-4.288 141.335,-4.203C141.099,-4.118 140.882,-4.075 140.685,-4.075C140.436,-4.075 140.249,-4.151 140.124,-4.302C139.999,-4.452 139.924,-4.607 139.898,-4.764C139.858,-5.001 139.839,-5.617 139.839,-6.615L139.839,-17.128C139.839,-17.299 139.793,-17.384 139.701,-17.384C139.583,-17.371 139.504,-17.358 139.465,-17.345L138.48,-17.108C138.388,-17.082 138.343,-17.003 138.343,-16.872L138.343,-6.654C138.343,-5.184 138.434,-4.233 138.618,-3.8C138.894,-3.17 139.511,-2.855 140.469,-2.855C140.836,-2.855 141.207,-2.911 141.581,-3.022C141.955,-3.133 142.142,-3.242 142.142,-3.347C142.142,-3.386 142.129,-3.432 142.103,-3.485L141.847,-4.213C141.82,-4.292 141.775,-4.331 141.709,-4.331M145.449,-12.58L142.674,-12.58C142.516,-12.58 142.437,-12.502 142.437,-12.344L142.437,-11.596C142.437,-11.438 142.516,-11.36 142.674,-11.36L144.209,-11.36L144.209,-3.367C144.209,-3.209 144.288,-3.13 144.445,-3.13L145.469,-3.13C145.627,-3.13 145.705,-3.209 145.705,-3.367L145.705,-12.285C145.705,-12.482 145.62,-12.58 145.449,-12.58M144.859,-17.246C144.531,-17.246 144.249,-17.131 144.012,-16.902C143.776,-16.672 143.658,-16.386 143.658,-16.045C143.658,-15.704 143.776,-15.418 144.012,-15.189C144.249,-14.959 144.531,-14.844 144.859,-14.844C145.187,-14.844 145.469,-14.962 145.705,-15.199C145.942,-15.435 146.06,-15.717 146.06,-16.045C146.06,-16.373 145.942,-16.656 145.705,-16.892C145.469,-17.128 145.187,-17.246 144.859,-17.246M154.899,-12.344C154.899,-12.449 154.883,-12.514 154.85,-12.541C154.817,-12.567 154.755,-12.58 154.663,-12.58L148.718,-12.58C148.626,-12.58 148.563,-12.567 148.531,-12.541C148.498,-12.514 148.481,-12.449 148.481,-12.344L148.481,-11.537C148.481,-11.379 148.56,-11.301 148.718,-11.301L153.029,-11.301L148.088,-4.154L148.088,-3.367C148.088,-3.261 148.097,-3.196 148.117,-3.17C148.137,-3.143 148.199,-3.13 148.304,-3.13L154.447,-3.13C154.578,-3.13 154.663,-3.189 154.703,-3.307L155.057,-4.115C155.109,-4.246 155.136,-4.318 155.136,-4.331C155.136,-4.384 155.044,-4.41 154.86,-4.41L149.997,-4.41L154.899,-11.537L154.899,-12.344ZM157.99,-9.637C158.056,-9.932 158.161,-10.237 158.305,-10.552C158.45,-10.867 158.679,-11.126 158.994,-11.33C159.309,-11.533 159.677,-11.635 160.097,-11.635C160.622,-11.635 161.048,-11.458 161.377,-11.104C161.705,-10.749 161.915,-10.375 162.007,-9.982C162.098,-9.588 162.144,-9.181 162.144,-8.761L157.892,-8.761C157.892,-9.049 157.925,-9.342 157.99,-9.637M163.03,-4.981C163.017,-4.981 162.896,-4.915 162.666,-4.784C162.436,-4.653 162.131,-4.518 161.751,-4.38C161.37,-4.243 160.989,-4.174 160.609,-4.174C160.084,-4.174 159.631,-4.288 159.25,-4.518C158.87,-4.748 158.587,-5.046 158.404,-5.414C158.22,-5.781 158.089,-6.139 158.01,-6.487C157.931,-6.835 157.892,-7.186 157.892,-7.54L163.542,-7.54C163.687,-7.54 163.759,-7.685 163.759,-7.973C163.759,-11.228 162.564,-12.856 160.176,-12.856C158.981,-12.856 158.033,-12.39 157.331,-11.458C156.629,-10.526 156.278,-9.325 156.278,-7.855C156.278,-6.346 156.645,-5.138 157.38,-4.233C158.115,-3.327 159.132,-2.868 160.432,-2.855C160.878,-2.855 161.354,-2.927 161.859,-3.071C162.364,-3.216 162.771,-3.367 163.08,-3.524C163.388,-3.682 163.542,-3.8 163.542,-3.878C163.542,-3.905 163.532,-3.934 163.513,-3.967C163.493,-4 163.483,-4.023 163.483,-4.036L163.148,-4.863C163.096,-4.942 163.057,-4.981 163.03,-4.981M168.051,-12.58L165.275,-12.58C165.117,-12.58 165.038,-12.502 165.038,-12.344L165.038,-11.596C165.038,-11.438 165.117,-11.36 165.275,-11.36L166.81,-11.36L166.81,-3.367C166.81,-3.209 166.889,-3.13 167.047,-3.13L168.07,-3.13C168.228,-3.13 168.307,-3.209 168.307,-3.367L168.307,-12.285C168.307,-12.482 168.221,-12.58 168.051,-12.58M167.46,-17.246C167.132,-17.246 166.85,-17.131 166.613,-16.902C166.377,-16.672 166.259,-16.386 166.259,-16.045C166.259,-15.704 166.377,-15.418 166.613,-15.189C166.85,-14.959 167.132,-14.844 167.46,-14.844C167.788,-14.844 168.07,-14.962 168.307,-15.199C168.543,-15.435 168.661,-15.717 168.661,-16.045C168.661,-16.373 168.543,-16.656 168.307,-16.892C168.07,-17.128 167.788,-17.246 167.46,-17.246" style="fill-rule:nonzero;"/>
            </g>
        </g>
    </g>
</svg>
