<?xml version="1.0" encoding="UTF-8" standalone="no"?>
<!DOCTYPE svg PUBLIC "-//W3C//DTD SVG 1.1//EN" "http://www.w3.org/Graphics/SVG/1.1/DTD/svg11.dtd">
<svg width="100%" height="100%" viewBox="0 0 1217 388" version="1.1" xmlns="http://www.w3.org/2000/svg" xmlns:xlink="http://www.w3.org/1999/xlink" xml:space="preserve" xmlns:serif="http://www.serif.com/" style="fill-rule:evenodd;clip-rule:evenodd;stroke-miterlimit:2;">
    <g transform="matrix(4.16667,0,0,4.16667,0,0)">
        <path d="M125.041,83.915C124.202,84.868 122.187,86.996 118.882,86.996C115.802,86.996 113.226,84.755 113.226,81.396C113.226,77.812 116.249,75.795 117.426,74.956L125.041,83.915ZM119.161,67.788C118.209,66.667 115.409,64.707 115.409,61.963C115.409,59.612 117.089,57.988 119.33,57.988C121.569,57.988 122.97,59.499 122.97,61.963C122.97,64.875 120.394,66.667 119.161,67.788ZM136.802,90.02C137.026,89.852 137.362,89.516 137.362,89.18C137.362,88.9 137.082,88.675 136.858,88.396L132.881,83.58C133.778,82.236 136.241,76.748 136.241,73.332C136.241,72.94 136.129,72.604 135.57,72.436L131.481,71.316C131.258,71.259 131.089,71.204 130.866,71.204C129.912,71.204 130.866,74.339 128.57,78.707L122.577,71.652C124.258,70.308 129.69,66.724 129.69,61.516C129.69,55.915 125.266,52.612 119.666,52.612C114.401,52.612 108.69,56.14 108.69,62.076C108.69,66.276 112.778,69.748 113.843,70.98C111.77,72.268 105.666,75.404 105.666,82.236C105.666,88.9 110.649,92.875 118.434,92.875C124.818,92.875 127.562,90.3 129.242,88.732L132.377,92.316C132.602,92.54 132.881,92.875 133.218,92.875C133.497,92.875 133.778,92.707 134.001,92.54L136.802,90.02Z" style="fill:white;"/>
        <path d="M125.041,83.915C124.202,84.868 122.187,86.996 118.882,86.996C115.802,86.996 113.226,84.755 113.226,81.396C113.226,77.812 116.249,75.795 117.426,74.956L125.041,83.915ZM119.161,67.788C118.209,66.667 115.409,64.707 115.409,61.963C115.409,59.612 117.089,57.988 119.33,57.988C121.569,57.988 122.97,59.499 122.97,61.963C122.97,64.875 120.394,66.667 119.161,67.788ZM136.802,90.02C137.026,89.852 137.362,89.516 137.362,89.18C137.362,88.9 137.082,88.675 136.858,88.396L132.881,83.58C133.778,82.236 136.241,76.748 136.241,73.332C136.241,72.94 136.129,72.604 135.57,72.436L131.481,71.316C131.258,71.259 131.089,71.204 130.866,71.204C129.912,71.204 130.866,74.339 128.57,78.707L122.577,71.652C124.258,70.308 129.69,66.724 129.69,61.516C129.69,55.915 125.266,52.612 119.666,52.612C114.401,52.612 108.69,56.14 108.69,62.076C108.69,66.276 112.778,69.748 113.843,70.98C111.77,72.268 105.666,75.404 105.666,82.236C105.666,88.9 110.649,92.875 118.434,92.875C124.818,92.875 127.562,90.3 129.242,88.732L132.377,92.316C132.602,92.54 132.881,92.875 133.218,92.875C133.497,92.875 133.778,92.707 134.001,92.54L136.802,90.02Z" style="fill:none;stroke:rgb(35,31,32);stroke-width:0.25px;"/>
        <path d="M156.625,76.58L159.594,76.58C165.473,76.58 172.361,73.332 172.361,64.091C172.361,53.564 163.85,53.564 159.313,53.564L150.242,53.564C149.289,53.564 149.064,53.732 149.064,54.74L149.064,90.748C149.064,91.755 149.289,91.923 150.242,91.923L155.449,91.923C156.4,91.923 156.625,91.755 156.625,90.748L156.625,76.58ZM156.625,70.7L156.625,59.444L158.922,59.444C161.834,59.444 164.801,59.612 164.801,64.484C164.801,70.14 161.666,70.7 158.361,70.7L156.625,70.7Z" style="fill:rgb(187,189,192);"/>
        <path d="M156.625,76.58L159.594,76.58C165.473,76.58 172.361,73.332 172.361,64.091C172.361,53.564 163.85,53.564 159.313,53.564L150.242,53.564C149.289,53.564 149.064,53.732 149.064,54.74L149.064,90.748C149.064,91.755 149.289,91.923 150.242,91.923L155.449,91.923C156.4,91.923 156.625,91.755 156.625,90.748L156.625,76.58ZM156.625,70.7L156.625,59.444L158.922,59.444C161.834,59.444 164.801,59.612 164.801,64.484C164.801,70.14 161.666,70.7 158.361,70.7L156.625,70.7Z" style="fill:none;stroke:rgb(35,31,32);stroke-width:0.25px;"/>
        <path d="M196.238,78.091C196.238,69.076 191.592,63.308 184.086,63.308C176.527,63.308 171.936,69.076 171.936,78.091C171.936,87.108 176.527,92.875 184.086,92.875C191.646,92.875 196.238,87.108 196.238,78.091ZM184.086,87.276C180.166,87.276 179.494,83.299 179.494,78.091C179.494,72.883 180.223,68.908 184.086,68.908C187.949,68.908 188.68,72.883 188.68,78.091C188.68,83.356 188.006,87.276 184.086,87.276Z" style="fill:rgb(187,189,192);"/>
        <path d="M196.238,78.091C196.238,69.076 191.592,63.308 184.086,63.308C176.527,63.308 171.936,69.076 171.936,78.091C171.936,87.108 176.527,92.875 184.086,92.875C191.646,92.875 196.238,87.108 196.238,78.091ZM184.086,87.276C180.166,87.276 179.494,83.299 179.494,78.091C179.494,72.883 180.223,68.908 184.086,68.908C187.949,68.908 188.68,72.883 188.68,78.091C188.68,83.356 188.006,87.276 184.086,87.276Z" style="fill:none;stroke:rgb(35,31,32);stroke-width:0.25px;"/>
        <path d="M209.869,86.268C209.813,86.043 209.645,85.932 209.42,85.932C209.084,85.932 208.357,86.436 207.236,86.436C205.668,86.436 205.668,84.868 205.668,83.076L205.668,52.556C205.668,51.604 205.557,51.379 205.109,51.379C204.996,51.379 204.492,51.547 204.324,51.547L199.619,52.499C198.949,52.667 198.557,52.667 198.557,53.507L198.557,82.068C198.557,87.219 198.557,92.875 205.445,92.875C208.133,92.875 211.102,92.091 211.102,91.308C211.102,91.14 211.045,91.14 210.988,90.86L209.869,86.268Z" style="fill:rgb(187,189,192);fill-rule:nonzero;"/>
        <path d="M209.869,86.268C209.813,86.043 209.645,85.932 209.42,85.932C209.084,85.932 208.357,86.436 207.236,86.436C205.668,86.436 205.668,84.868 205.668,83.076L205.668,52.556C205.668,51.604 205.557,51.379 205.109,51.379C204.996,51.379 204.492,51.547 204.324,51.547L199.619,52.499C198.949,52.667 198.557,52.667 198.557,53.507L198.557,82.068C198.557,87.219 198.557,92.875 205.445,92.875C208.133,92.875 211.102,92.091 211.102,91.308C211.102,91.14 211.045,91.14 210.988,90.86L209.869,86.268Z" style="fill:none;stroke:rgb(35,31,32);stroke-width:0.25px;"/>
        <path d="M224.545,55.972C224.545,53.396 222.473,51.379 219.953,51.379C217.377,51.379 215.305,53.396 215.305,55.972C215.305,58.547 217.377,60.62 219.953,60.62C222.473,60.62 224.545,58.547 224.545,55.972ZM223.537,65.043C223.537,64.427 223.426,64.259 222.752,64.259L212.113,64.259C211.441,64.259 211.33,64.427 211.33,65.043L211.33,68.684C211.33,69.3 211.441,69.467 212.113,69.467L216.424,69.467L216.424,91.14C216.424,91.755 216.537,91.923 217.209,91.923L222.752,91.923C223.426,91.923 223.537,91.755 223.537,91.14L223.537,65.043Z" style="fill:rgb(187,189,192);"/>
        <path d="M224.545,55.972C224.545,53.396 222.473,51.379 219.953,51.379C217.377,51.379 215.305,53.396 215.305,55.972C215.305,58.547 217.377,60.62 219.953,60.62C222.473,60.62 224.545,58.547 224.545,55.972ZM223.537,65.043C223.537,64.427 223.426,64.259 222.752,64.259L212.113,64.259C211.441,64.259 211.33,64.427 211.33,65.043L211.33,68.684C211.33,69.3 211.441,69.467 212.113,69.467L216.424,69.467L216.424,91.14C216.424,91.755 216.537,91.923 217.209,91.923L222.752,91.923C223.426,91.923 223.537,91.755 223.537,91.14L223.537,65.043Z" style="fill:none;stroke:rgb(35,31,32);stroke-width:0.25px;"/>
        <path d="M249.982,87.219C250.037,87.108 250.205,86.884 250.205,86.604C250.205,86.436 250.205,86.043 249.143,86.043L236.373,86.043L249.029,69.188L249.029,64.82C249.029,64.484 248.525,64.259 248.078,64.259L230.324,64.259C229.709,64.259 229.541,64.484 229.541,65.043L229.541,69.412C229.541,69.804 229.654,70.14 229.934,70.14L241.244,70.14L228.365,87.164L228.365,91.364C228.365,91.7 228.588,91.923 228.926,91.923L247.572,91.923C247.797,91.923 248.189,91.644 248.357,91.196L249.982,87.219Z" style="fill:rgb(187,189,192);fill-rule:nonzero;"/>
        <path d="M249.982,87.219C250.037,87.108 250.205,86.884 250.205,86.604C250.205,86.436 250.205,86.043 249.143,86.043L236.373,86.043L249.029,69.188L249.029,64.82C249.029,64.484 248.525,64.259 248.078,64.259L230.324,64.259C229.709,64.259 229.541,64.484 229.541,65.043L229.541,69.412C229.541,69.804 229.654,70.14 229.934,70.14L241.244,70.14L228.365,87.164L228.365,91.364C228.365,91.7 228.588,91.923 228.926,91.923L247.572,91.923C247.797,91.923 248.189,91.644 248.357,91.196L249.982,87.219Z" style="fill:none;stroke:rgb(35,31,32);stroke-width:0.25px;"/>
        <path d="M259.047,74.788C259.215,73.22 259.437,68.516 263.807,68.516C267.67,68.516 267.838,72.492 267.838,74.788L259.047,74.788ZM272.934,85.596C272.822,85.372 272.598,85.148 272.318,85.148C271.535,85.148 269.238,86.996 265.207,86.996C259.943,86.996 259.047,83.131 259.047,79.996L274.111,79.996C275.174,79.996 275.398,79.66 275.398,78.596C275.398,71.82 273.719,63.308 264.199,63.308C256.695,63.308 251.934,69.467 251.934,78.372C251.934,88.675 257.086,92.875 264.479,92.875C268.902,92.875 274.502,91.028 274.502,89.572C274.502,89.348 274.447,89.124 274.334,88.956L272.934,85.596Z" style="fill:rgb(187,189,192);"/>
        <path d="M259.047,74.788C259.215,73.22 259.437,68.516 263.807,68.516C267.67,68.516 267.838,72.492 267.838,74.788L259.047,74.788ZM272.934,85.596C272.822,85.372 272.598,85.148 272.318,85.148C271.535,85.148 269.238,86.996 265.207,86.996C259.943,86.996 259.047,83.131 259.047,79.996L274.111,79.996C275.174,79.996 275.398,79.66 275.398,78.596C275.398,71.82 273.719,63.308 264.199,63.308C256.695,63.308 251.934,69.467 251.934,78.372C251.934,88.675 257.086,92.875 264.479,92.875C268.902,92.875 274.502,91.028 274.502,89.572C274.502,89.348 274.447,89.124 274.334,88.956L272.934,85.596Z" style="fill:none;stroke:rgb(35,31,32);stroke-width:0.25px;"/>
        <path d="M290.252,55.972C290.252,53.396 288.18,51.379 285.66,51.379C283.084,51.379 281.012,53.396 281.012,55.972C281.012,58.547 283.084,60.62 285.66,60.62C288.18,60.62 290.252,58.547 290.252,55.972ZM289.244,65.043C289.244,64.427 289.133,64.259 288.461,64.259L277.82,64.259C277.148,64.259 277.035,64.427 277.035,65.043L277.035,68.684C277.035,69.3 277.148,69.467 277.82,69.467L282.133,69.467L282.133,91.14C282.133,91.755 282.244,91.923 282.916,91.923L288.461,91.923C289.133,91.923 289.244,91.755 289.244,91.14L289.244,65.043Z" style="fill:rgb(187,189,192);"/>
        <path d="M290.252,55.972C290.252,53.396 288.18,51.379 285.66,51.379C283.084,51.379 281.012,53.396 281.012,55.972C281.012,58.547 283.084,60.62 285.66,60.62C288.18,60.62 290.252,58.547 290.252,55.972ZM289.244,65.043C289.244,64.427 289.133,64.259 288.461,64.259L277.82,64.259C277.148,64.259 277.035,64.427 277.035,65.043L277.035,68.684C277.035,69.3 277.148,69.467 277.82,69.467L282.133,69.467L282.133,91.14C282.133,91.755 282.244,91.923 282.916,91.923L288.461,91.923C289.133,91.923 289.244,91.755 289.244,91.14L289.244,65.043Z" style="fill:none;stroke:rgb(35,31,32);stroke-width:0.25px;"/>
        <path d="M1.175,3.164C0.224,3.164 0,3.332 0,4.34L0,40.348C0,41.3 0.224,41.524 1.175,41.524L10.36,41.524C17.585,41.524 24.248,40.012 24.248,30.66C24.248,24.22 19.879,22.148 17.248,21.42C19.376,20.356 22.96,18.564 22.96,12.964C22.96,3.948 15.344,3.164 9.912,3.164L1.175,3.164ZM7.56,35.644L7.56,24.892L9.687,24.892C13.44,24.892 16.687,25.508 16.687,30.212C16.687,34.972 13.44,35.644 9.576,35.644L7.56,35.644ZM7.56,19.012L7.56,9.044L9.912,9.044C12.992,9.044 15.4,10.22 15.4,13.748C15.4,18.172 12.6,19.012 9.296,19.012L7.56,19.012Z" style="fill:rgb(35,31,32);"/>
        <path d="M52.641,40.908C53.033,40.796 53.257,40.572 53.257,40.292C53.257,39.004 52.193,39.452 52.193,31.556L52.193,14.084C52.193,13.132 52.081,12.908 51.8,12.908C51.577,12.908 51.018,13.076 50.85,13.076L46.145,14.028C45.473,14.196 45.081,14.252 45.081,15.036L45.081,34.86C44.354,35.364 42.505,36.596 40.153,36.596C37.297,36.596 37.018,34.02 37.018,31.892L37.018,14.084C37.018,13.132 36.905,12.908 36.57,12.908C36.401,12.908 35.84,13.076 35.672,13.076L30.97,14.028C30.297,14.196 29.905,14.252 29.905,15.036L29.905,34.3C29.905,41.076 34.105,42.476 37.186,42.476C41.609,42.476 44.241,40.516 45.752,39.172C46.369,41.412 46.817,42.476 47.545,42.476C47.769,42.476 48.048,42.42 48.385,42.308L52.641,40.908ZM50.065,5.012C50.065,2.94 48.385,1.148 46.202,1.148C44.017,1.148 42.337,2.884 42.337,5.012C42.337,7.14 44.073,8.876 46.202,8.876C48.329,8.876 50.065,7.14 50.065,5.012ZM40.153,5.012C40.153,2.884 38.417,1.148 36.289,1.148C34.105,1.148 32.425,2.884 32.425,5.012C32.425,7.14 34.161,8.876 36.289,8.876C38.417,8.876 40.153,7.14 40.153,5.012Z" style="fill:rgb(35,31,32);"/>
        <path d="M66.256,22.036C66.984,21.252 68.776,19.348 70.513,19.348C71.801,19.348 72.809,19.964 73.145,19.964C73.369,19.964 73.537,19.628 73.592,19.46L75.329,14.756C75.385,14.644 75.44,14.42 75.44,14.196C75.44,13.468 73.816,12.908 72.192,12.908C68.385,12.908 66.313,16.044 65.249,17.332C64.968,15.428 63.848,12.908 63.177,12.908C62.953,12.908 62.672,13.076 62.449,13.132L58.192,14.868C57.913,14.98 57.689,15.148 57.689,15.372C57.689,16.66 59.145,17.668 59.145,23.828L59.145,40.74C59.145,41.356 59.257,41.524 59.928,41.524L65.473,41.524C66.144,41.524 66.256,41.356 66.256,40.74L66.256,22.036Z" style="fill:rgb(35,31,32);fill-rule:nonzero;"/>
        <path d="M92.414,33.684C91.854,34.188 90.511,35.588 87.654,35.588C84.295,35.588 83.175,32.396 83.175,27.3C83.175,21.924 84.63,18.788 87.991,18.788C90.511,18.788 91.686,19.908 92.414,20.468L92.414,33.684ZM99.135,22.316C99.135,17.892 100.703,15.876 100.703,15.148C100.703,14.924 100.423,14.756 100.198,14.644L95.83,13.02C95.662,12.964 95.438,12.908 95.27,12.908C94.486,12.908 93.479,15.036 93.311,15.54C92.246,14.644 90.622,12.908 86.646,12.908C79.982,12.908 76.063,18.508 76.063,27.524C76.063,35.924 79.367,41.188 85.638,41.188C89.446,41.188 91.574,39.62 92.414,39.06C92.414,39.452 92.583,40.796 92.583,42.756C92.583,45.892 91.91,47.516 87.991,47.516C83.007,47.516 79.59,45.332 78.918,45.332C78.639,45.332 78.414,45.5 78.302,45.892L77.238,49.308C77.07,49.812 77.014,50.036 77.014,50.428C77.014,51.604 84.238,53.396 88.606,53.396C96.391,53.396 99.414,49.364 99.414,43.26C99.414,40.124 99.135,34.356 99.135,30.66L99.135,22.316Z" style="fill:rgb(35,31,32);"/>
        <path d="M110.853,24.388C111.021,22.82 111.245,18.116 115.613,18.116C119.477,18.116 119.645,22.092 119.645,24.388L110.853,24.388ZM124.741,35.196C124.628,34.972 124.404,34.748 124.124,34.748C123.34,34.748 121.044,36.596 117.013,36.596C111.748,36.596 110.853,32.732 110.853,29.596L125.917,29.596C126.981,29.596 127.205,29.26 127.205,28.196C127.205,21.42 125.525,12.908 116.004,12.908C108.5,12.908 103.741,19.068 103.741,27.972C103.741,38.276 108.893,42.476 116.285,42.476C120.708,42.476 126.309,40.628 126.309,39.172C126.309,38.948 126.252,38.724 126.141,38.556L124.741,35.196Z" style="fill:rgb(35,31,32);"/>
        <path d="M139.539,22.036C140.266,21.252 142.058,19.348 143.794,19.348C145.082,19.348 146.09,19.964 146.426,19.964C146.65,19.964 146.818,19.628 146.875,19.46L148.611,14.756C148.666,14.644 148.723,14.42 148.723,14.196C148.723,13.468 147.098,12.908 145.474,12.908C141.667,12.908 139.594,16.044 138.531,17.332C138.25,15.428 137.13,12.908 136.458,12.908C136.235,12.908 135.955,13.076 135.73,13.132L131.474,14.868C131.195,14.98 130.97,15.148 130.97,15.372C130.97,16.66 132.426,17.668 132.426,23.828L132.426,40.74C132.426,41.356 132.538,41.524 133.21,41.524L138.754,41.524C139.426,41.524 139.539,41.356 139.539,40.74L139.539,22.036Z" style="fill:rgb(35,31,32);fill-rule:nonzero;"/>
        <path d="M158.695,22.036C159.424,21.252 161.217,19.348 162.953,19.348C164.24,19.348 165.248,19.964 165.584,19.964C165.809,19.964 165.977,19.628 166.033,19.46L167.768,14.756C167.824,14.644 167.881,14.42 167.881,14.196C167.881,13.468 166.256,12.908 164.633,12.908C160.824,12.908 158.752,16.044 157.688,17.332C157.408,15.428 156.289,12.908 155.617,12.908C155.393,12.908 155.111,13.076 154.889,13.132L150.633,14.868C150.352,14.98 150.129,15.148 150.129,15.372C150.129,16.66 151.584,17.668 151.584,23.828L151.584,40.74C151.584,41.356 151.695,41.524 152.369,41.524L157.912,41.524C158.584,41.524 158.695,41.356 158.695,40.74L158.695,22.036Z" style="fill:rgb(35,31,32);fill-rule:nonzero;"/>
        <path d="M176.229,24.388C176.398,22.82 176.621,18.116 180.988,18.116C184.854,18.116 185.021,22.092 185.021,24.388L176.229,24.388ZM190.117,35.196C190.006,34.972 189.781,34.748 189.502,34.748C188.719,34.748 186.422,36.596 182.391,36.596C177.125,36.596 176.229,32.732 176.229,29.596L191.293,29.596C192.357,29.596 192.582,29.26 192.582,28.196C192.582,21.42 190.9,12.908 181.383,12.908C173.879,12.908 169.117,19.068 169.117,27.972C169.117,38.276 174.27,42.476 181.662,42.476C186.086,42.476 191.686,40.628 191.686,39.172C191.686,38.948 191.629,38.724 191.518,38.556L190.117,35.196Z" style="fill:rgb(35,31,32);"/>
        <path d="M214.883,35.252C214.771,35.084 214.66,34.972 214.492,34.972C213.484,34.972 212.363,36.876 209.508,36.876C205.195,36.876 203.74,34.02 203.74,27.86C203.74,21.42 205.42,18.508 209.229,18.508C212.141,18.508 213.986,20.748 214.547,20.748C214.715,20.748 214.828,20.58 214.939,20.468L217.012,16.828C217.068,16.66 217.18,16.492 217.18,16.324C217.18,14.588 212.252,12.908 209.229,12.908C200.939,12.908 196.18,18.788 196.18,28.252C196.18,37.716 200.828,42.476 208.611,42.476C211.971,42.476 216.508,40.852 216.508,39.508C216.508,39.34 216.396,39.116 216.34,38.948L214.883,35.252Z" style="fill:rgb(35,31,32);fill-rule:nonzero;"/>
        <path d="M243.213,21.756C243.213,16.884 241.867,12.908 235.932,12.908C231.957,12.908 229.715,14.868 228.205,16.1L228.205,2.156C228.205,1.204 228.092,0.98 227.645,0.98C227.531,0.98 227.027,1.148 226.859,1.148L222.156,2.1C221.484,2.268 221.092,2.268 221.092,3.108L221.092,40.74C221.092,41.356 221.205,41.524 221.877,41.524L227.42,41.524C228.092,41.524 228.205,41.356 228.205,40.74L228.205,21.14C228.932,20.468 230.611,18.788 232.965,18.788C235.82,18.788 236.1,21.364 236.1,23.492L236.1,40.74C236.1,41.356 236.213,41.524 236.885,41.524L242.428,41.524C243.1,41.524 243.213,41.356 243.213,40.74L243.213,21.756Z" style="fill:rgb(35,31,32);fill-rule:nonzero;"/>
        <path d="M265.508,35.308C265.451,35.084 265.283,34.972 265.059,34.972C264.275,34.972 262.875,36.036 260.635,36.036C258.73,36.036 258.73,34.412 258.73,32.62L258.73,19.068L264.275,19.068C264.947,19.068 265.115,19.012 265.283,18.228L266.012,14.924C266.066,14.7 266.066,14.588 266.066,14.476C266.066,13.86 265.619,13.86 265.115,13.86L258.73,13.86L258.73,6.02C258.73,5.348 258.676,5.068 258.172,5.068C257.836,5.068 257.611,5.124 257.443,5.124L252.516,5.796C251.732,5.908 251.619,6.076 251.619,6.804L251.619,13.86L247.643,13.86C246.971,13.86 246.859,14.028 246.859,14.644L246.859,18.284C246.859,18.9 246.971,19.068 247.643,19.068L251.619,19.068L251.619,31.668C251.619,36.82 251.619,42.476 258.844,42.476C262.652,42.476 266.74,41.412 266.74,40.348C266.74,40.18 266.684,40.18 266.627,39.9L265.508,35.308Z" style="fill:rgb(35,31,32);fill-rule:nonzero;"/>
        <path d="M275.635,24.388C275.803,22.82 276.025,18.116 280.395,18.116C284.258,18.116 284.426,22.092 284.426,24.388L275.635,24.388ZM289.523,35.196C289.41,34.972 289.188,34.748 288.906,34.748C288.121,34.748 285.826,36.596 281.793,36.596C276.531,36.596 275.635,32.732 275.635,29.596L290.697,29.596C291.764,29.596 291.986,29.26 291.986,28.196C291.986,21.42 290.307,12.908 280.785,12.908C273.283,12.908 268.523,19.068 268.523,27.972C268.523,38.276 273.674,42.476 281.066,42.476C285.49,42.476 291.09,40.628 291.09,39.172C291.09,38.948 291.035,38.724 290.922,38.556L289.523,35.196Z" style="fill:rgb(35,31,32);"/>
    </g>
</svg>
